<?xml version="1.0" encoding="UTF-8"?>
<svg id="Layer_1" xmlns="http://www.w3.org/2000/svg" viewBox="0 0 430 316.08">
  <defs>
    <style>
      .cls-1 {
        font-family: MVBoli, 'MV Boli';
        font-size: 72px;
      }

      .cls-1, .cls-2 {
        fill: #ef4443;
      }

      .cls-3 {
        fill: #fff;
      }
    </style>
  </defs>
  <path class="cls-3" d="M430,273H0C0,182,0,91,0,0c143.33,0,286.67,0,430,0,0,91,0,182,0,273ZM218.21,243.75c1.07,0,2.69,0,4.31,0,40.81,0,81.62,0,122.43-.03,13.79,0,13.97-.02,15.61-13.88.45-3.77,2.01-4.9,5.35-4.67,13.1.9,26.19,1.79,39.28,2.74,2.67.19,5.82,1.06,6.51-2.59.69-3.65-2.34-4.4-5.09-4.64-11.93-1.02-23.86-1.97-35.8-2.84-2.94-.21-5.92-.03-9.28-.03-.11-2.08,0-3.92-.35-5.66-.93-4.67.47-7.01,5.59-7.44,11.75-.98,23.48-2.3,35.18-3.77,1.7-.21,3.19-2.06,4.78-3.15-1.56-1.32-3.08-3.69-4.7-3.76-5.8-.27-11.67-.08-17.45.54-8.04.86-16.03,2.26-24.29,3.47-.67-3.2-.98-6.2-1.93-8.99-4.79-14.17-9.75-28.29-14.6-42.44-.59-1.71-1.37-3.55-1.27-5.28,1.1-17.95-.8-35.71-4.92-53.05-2.82-11.87-6.98-23.59-11.95-34.74-3.9-8.74-11.27-10.74-20.17-7.04-4.71,1.96-9.67,4.28-13.28,7.74-11.41,10.91-22.31,22.36-33.2,33.79-2.06,2.16-3.59,2.9-6.73,2.32-27.14-5.06-54.25-5.66-81.24,1.28-1.4.36-3.24-.14-4.64-.76-11.56-5.11-22.77-11.2-34.66-15.32-13.29-4.6-27.03-8.33-40.87-10.84-16.27-2.94-23.02,3.95-18.97,19.85,4.45,17.51,10.76,34.57,16.64,51.7,1.23,3.59,1.32,6.54.07,10.02-4.81,13.47-9.49,26.98-13.99,40.56-1.28,3.86-1.77,7.99-2.34,10.71-14.89-1.22-29.09-2.4-43.3-3.53-2.68-.21-5.27.11-5.12,3.72.13,3.27,2.58,3.22,5.05,3.36,8.31.48,16.64.83,24.9,1.8,5.85.69,11.59,2.29,17.49,3.51-.22,4.27-.41,7.83-.6,11.45-3.01,0-5.34-.14-7.65.02-13.09.91-26.19,1.86-39.27,2.85-2.81.21-5.72.88-4.97,4.63.76,3.78,3.87,2.72,6.5,2.53,13.09-.93,26.19-1.78,39.28-2.72,4.54-.33,6.83,1.17,6.38,6.18-.23,2.59.58,5.27.84,7.91.35,3.47,2.1,4.6,5.65,4.59,37.82-.12,75.64-.08,113.46-.08,7.27,0,14.54,0,22.01,0,.26-8.89,2.68-17.64-6.53-23.2-.93-.56-1.48-1.78-2.15-2.73-1.99-2.82-.9-4.52,2.2-4.67,5.31-.27,10.65-.28,15.96-.14,1.79.05,3.55.88,7.19,1.84-9.86,7.93-16.06,16.13-11.35,28.9Z"/>
  <path class="cls-2" d="M218.21,243.75c-4.72-12.76,1.48-20.97,11.35-28.9-3.64-.97-5.41-1.8-7.19-1.84-5.32-.14-10.65-.13-15.96.14-3.1.16-4.19,1.85-2.2,4.67.67.95,1.22,2.17,2.15,2.73,9.22,5.56,6.79,14.31,6.53,23.2-7.47,0-14.74,0-22.01,0-37.82,0-75.64-.04-113.46.08-3.55.01-5.3-1.12-5.65-4.59-.26-2.65-1.07-5.32-.84-7.91.45-5.01-1.84-6.51-6.38-6.18-13.09.95-26.19,1.79-39.28,2.72-2.63.19-5.74,1.25-6.5-2.53-.75-3.74,2.15-4.41,4.97-4.63,13.09-.99,26.18-1.95,39.27-2.85,2.31-.16,4.64-.02,7.65-.02.19-3.62.37-7.19.6-11.45-5.91-1.22-11.65-2.83-17.49-3.51-8.26-.97-16.59-1.32-24.9-1.8-2.47-.14-4.92-.09-5.05-3.36-.14-3.61,2.44-3.93,5.12-3.72,14.21,1.13,28.41,2.31,43.3,3.53.58-2.72,1.07-6.85,2.34-10.71,4.5-13.58,9.18-27.09,13.99-40.56,1.24-3.48,1.16-6.43-.07-10.02-5.88-17.13-12.19-34.18-16.64-51.7-4.04-15.9,2.71-22.79,18.97-19.85,13.84,2.5,27.58,6.23,40.87,10.84,11.89,4.12,23.1,10.21,34.66,15.32,1.4.62,3.24,1.12,4.64.76,26.99-6.94,54.1-6.34,81.24-1.28,3.14.59,4.66-.15,6.73-2.32,10.9-11.43,21.8-22.88,33.2-33.79,3.61-3.45,8.57-5.78,13.28-7.74,8.9-3.7,16.27-1.7,20.17,7.04,4.98,11.15,9.13,22.87,11.95,34.74,4.12,17.35,6.02,35.11,4.92,53.05-.11,1.73.68,3.56,1.27,5.28,4.86,14.15,9.82,28.27,14.6,42.44.94,2.79,1.26,5.79,1.93,8.99,8.26-1.21,16.25-2.61,24.29-3.47,5.78-.62,11.65-.81,17.45-.54,1.62.07,3.14,2.44,4.7,3.76-1.59,1.09-3.08,2.94-4.78,3.15-11.7,1.48-23.43,2.79-35.18,3.77-5.13.43-6.53,2.77-5.59,7.44.35,1.74.24,3.58.35,5.66,3.37,0,6.34-.18,9.28.03,11.94.87,23.87,1.82,35.8,2.84,2.75.24,5.79.99,5.09,4.64-.7,3.66-3.84,2.79-6.51,2.59-13.09-.95-26.19-1.84-39.28-2.74-3.34-.23-4.9.9-5.35,4.67-1.64,13.86-1.81,13.88-15.61,13.88-40.81.02-81.62.02-122.43.03-1.62,0-3.25,0-4.31,0ZM287.7,105.24c.39.27.78.54,1.16.81,2.78-1.05,5.52-2.27,8.37-3.09,1.31-.37,3.35-.49,4.12.25.71.69.44,2.75.1,4.07-.61,2.35-1.6,4.59-2.05,5.84,9.1,6.92,17.59,13.36,26.21,19.91,2.3-13.2,1.65-26.6-.27-39.89-1.06-7.32-2.75-14.74-5.48-21.58-2.67-6.71-8.84-7.18-14.01-2-1.17,1.17-2.4,2.42-3.1,3.88-5.09,10.56-10.05,21.19-15.04,31.8ZM105.05,131.48c7.15-4.86,14.72-10,22.63-15.38-.34-.79-1.19-2.23-1.59-3.79-.38-1.47-.29-3.07-.4-4.61,1.57.08,3.23-.15,4.68.3,2.35.73,4.56,1.9,6.83,2.88-6.69-9.59-15.36-16.52-25.5-21.39-5.48-2.63-11.39-4.67-17.33-5.99-7.43-1.64-9.74,1.24-7.42,8.37.97,2.98,2.39,5.83,3.71,8.69,4.87,10.52,9.78,21.01,14.4,30.92ZM166.99,199.11c.03-15.4-11.36-27.89-25.4-27.84-15.08.05-27.66,13.29-27.59,29.04.07,15.3,11.33,26.61,26.46,26.58,15.1-.03,26.5-11.97,26.53-27.77ZM318.17,199.46c-.23-15.69-12.84-28.52-27.68-28.17-13.89.33-25.45,12.99-25.23,27.64.25,16.18,11.76,28.09,27,27.93,15.5-.16,26.14-11.42,25.9-27.4Z"/>
  <path class="cls-3" d="M287.7,105.24c5-10.61,9.96-21.23,15.04-31.8.7-1.46,1.93-2.71,3.1-3.88,5.17-5.18,11.34-4.71,14.01,2,2.73,6.85,4.42,14.26,5.48,21.58,1.92,13.29,2.57,26.69.27,39.89-8.62-6.55-17.11-12.99-26.21-19.91.45-1.25,1.44-3.49,2.05-5.84.34-1.33.61-3.38-.1-4.07-.76-.74-2.81-.62-4.12-.25-2.85.82-5.59,2.03-8.37,3.09-.39-.27-.78-.54-1.16-.81Z"/>
  <path class="cls-3" d="M105.05,131.48c-4.62-9.91-9.53-20.41-14.4-30.92-1.32-2.86-2.74-5.71-3.71-8.69-2.32-7.13,0-10.01,7.42-8.37,5.94,1.31,11.85,3.36,17.33,5.99,10.14,4.87,18.81,11.8,25.5,21.39-2.27-.98-4.48-2.15-6.83-2.88-1.45-.45-3.11-.22-4.68-.3.12,1.54.03,3.14.4,4.61.4,1.56,1.25,3,1.59,3.79-7.91,5.37-15.48,10.52-22.63,15.38Z"/>
  <path class="cls-3" d="M166.99,199.11c-.03,15.81-11.43,27.74-26.53,27.77-15.13.03-26.38-11.28-26.46-26.58-.07-15.75,12.51-28.99,27.59-29.04,14.03-.05,25.42,12.44,25.4,27.84ZM141.04,220.26c12.29-.06,20.81-9.69,20.66-23.33-.15-13.37-8.57-23.18-19.83-23.09-11.69.09-21.78,11.96-21.67,25.5.1,12.01,9.03,20.98,20.84,20.92Z"/>
  <path class="cls-3" d="M318.17,199.46c.24,15.98-10.4,27.24-25.9,27.4-15.24.16-26.75-11.75-27-27.93-.22-14.64,11.34-27.31,25.23-27.64,14.84-.35,27.44,12.48,27.68,28.17ZM312.05,198.61c-.02-6.6-2.95-13.82-7.51-18.53-9.41-9.73-23.65-8.02-30.44,3.67-3.34,5.74-3.92,12.01-2.91,18.39,1.92,12.12,10.98,19.13,22.89,17.98,10.71-1.04,18.01-9.77,17.97-21.51Z"/>
  <path class="cls-2" d="M141.04,220.26c-11.81.06-20.74-8.9-20.84-20.92-.11-13.54,9.98-25.41,21.67-25.5,11.26-.08,19.68,9.72,19.83,23.09.15,13.64-8.37,23.26-20.66,23.33ZM137.12,186.56c.04,5.3,3.76,9.53,8.27,9.39,4.3-.13,7.79-4.3,7.8-9.34.02-5.53-3.35-9.58-7.97-9.59-4.52,0-8.15,4.26-8.1,9.54Z"/>
  <path class="cls-2" d="M312.05,198.61c.04,11.74-7.25,20.47-17.97,21.51-11.91,1.15-20.97-5.86-22.89-17.98-1.01-6.38-.43-12.65,2.91-18.39,6.8-11.69,21.03-13.4,30.44-3.67,4.56,4.71,7.48,11.93,7.51,18.53ZM295.19,186.29c-.1-5.47-3.67-9.44-8.31-9.26-4.51.18-7.99,4.58-7.8,9.85.17,4.89,3.92,9.03,8.2,9.07,4.51.04,8.01-4.24,7.91-9.66Z"/>
  <path class="cls-3" d="M137.12,186.56c-.04-5.27,3.59-9.54,8.1-9.54,4.62,0,7.99,4.06,7.97,9.59-.02,5.04-3.5,9.21-7.8,9.34-4.51.13-8.23-4.09-8.27-9.39Z"/>
  <path class="cls-3" d="M295.19,186.29c.1,5.43-3.4,9.71-7.91,9.66-4.29-.04-8.03-4.18-8.2-9.07-.19-5.28,3.29-9.67,7.8-9.85,4.64-.18,8.21,3.79,8.31,9.26Z"/>
  <text class="cls-1" transform="translate(61.01 294.63)"><tspan x="0" y="0">NekoBlog</tspan></text>
</svg>